<?xml version="1.0" encoding="UTF-8" standalone="no"?>
<svg
   version="1.2"
   viewBox="0 0 21.23 235.14084"
   width="21.23"
   height="235.14084"
   id="svg1"
   xmlns="http://www.w3.org/2000/svg"
   xmlns:svg="http://www.w3.org/2000/svg">
  <defs
     id="defs1" />
  <style
     id="style1">
		.s0 { opacity: .97;fill: #0c0b09 } 
	</style>
  <path
     id="Path 0"
     fill-rule="evenodd"
     class="s0"
     d="m 4.0400016,4.3595294 c -0.28169,2.323 0.65,8.7500006 1.43,14.2500006 0.78,5.5 2.77,15.4 4.43,22 1.6599994,6.6 4.8899994,20.32 7.1699994,30.5 3.51,15.6 4.16,20.22 4.16,29.5 0,6.59 -0.56,12.8 -1.4,15.5 -1.18,3.82 -1.19,5.26 -0.03,9.5 0.95,3.49 1.21,8.61 0.87,17 -0.44,10.66 -1.33,15.34 -7.96,42 -3.9822844,9.47569 -8.9444034,35.09092 -9.5501444,39.22415 -0.575198,3.92483 -1.254478,13.67819 -3.1598550214377,10.77585 0.020000001438,-3.3 0.7000000014377,-9.83 1.5200000214377,-14.5 0.82,-4.67 4.69,-21.1 8.5999994,-36.5 6.51,-25.59 7.17,-29.12 7.66,-41 0.3,-7.15 0.25,-13.9 -0.11,-15 -0.58,-1.79 -1.1,-1.5 -4.9,2.73 -2.34,2.6 -4.8099994,4.73 -5.4999994,4.75 -0.69,0.01 -1.92,-0.66 -2.75,-1.48 -0.83,-0.82 -1.52,-2.96 -1.53,-4.75 -0.02,-1.79 0.88,-4.49 2,-6 2.02,-2.74 2.02,-2.76 0.05,-5 -1.12,-1.28 -2.01,-3.77 -2.04,-5.75 -0.04,-2.03 0.62,-4.13 1.56,-5 1.26,-1.16 2.24,-1.27 4.3,-0.47 1.4599994,0.56 3.5599994,2.46 4.6599994,4.21 1.1,1.75 2.56,3.2 3.25,3.22 0.82,0.03 1.46,-2.26 1.85,-6.71 0.33,-3.71 0.29,-9.68 -0.09,-13.25 -0.38,-3.57 -2.03,-12.57 -3.66,-20 -1.63,-7.43 -4.9199994,-21.82 -7.3099994,-32 -2.39,-10.18 -4.88,-22.55 -5.54,-27.5 -0.66,-4.9500006 -0.91,-10.5700006 -0.54,-12.5000006 1.436491,-4.41592 2.957766,-1.03025 2.56,2.25 z m 1.25,109.4400006 c 0.43,2.1 1.77577,3.92619 2.5,4.93 1.361653,1.43639 1.57,1.31 -0.55,4 -1.26,1.58 -2.27,4.12 -2.25,5.63 0.01,1.51 0.59,3.04 1.28,3.4 1.432431,1.53943 2.813501,-0.24336 4.7235004,-2.39336 1.470713,-1.53107 2.115138,-2.39956 4.849789,-5.28249 3.157793,-2.28279 0.750145,-6.08572 -1.441572,-8.99465 -3.44713,-3.43349 -3.450503,-4.20107 -4.5805024,-5.22107 -0.942998,-1.9205 -3.519788,-1.3465 -3.851215,-0.76843 -1.1,0.67 -1.26,1.82 -0.68,4.7 z" />
</svg>
